<svg xmlns="http://www.w3.org/2000/svg" width="14" height="14" viewBox="0 0 14 14">
    <path fill="#8f9bb3" fill-rule="evenodd" d="M11.083 10.5c0 .322-.261.583-.583.583-.322 0-.583-.261-.583-.583 0-.322.261-.583.583-.583.322 0 .583.261.583.583zM7 8.75H2.333l.01-5.833H8.75L8.74 8.75H7zM4.083 10.5c0 .322-.261.583-.583.583-.322 0-.583-.261-.583-.583 0-.322.261-.583.583-.583.322 0 .583.261.583.583zm7.584-3.22v1.47h-1.75V5.88l1.75 1.4zm.948-.736L9.917 4.386v-1.47c0-.643-.475-1.166-1.058-1.166H2.224c-.583 0-1.057.523-1.057 1.167V8.75c0 .51.299.939.712 1.098-.082.202-.129.421-.129.652 0 .965.785 1.75 1.75 1.75s1.75-.785 1.75-1.75c0-.206-.042-.4-.108-.583h3.716c-.066.183-.108.377-.108.583 0 .965.785 1.75 1.75 1.75s1.75-.785 1.75-1.75c0-.206-.042-.4-.108-.583h.108c.323 0 .583-.261.583-.584V7c0-.177-.08-.345-.218-.456z"/>
</svg>
